PathFileType	4	(X/Y/Z)	/Users/itak/Documents/Research/Walk-IL/dataset/trc/00493_00167.trc
DataRate	CameraRate	NumFrames	NumMarkers	Units	OrigDataRate	OrigDataStartFrame	OrigNumFrames
100.000000	100.000000	4	53	mm	100.000000	447	596
Frame#	Time	RPSI			LPSI			L3			STRN			T10			C7			CLAV			RBAK			LBAK			LSHO			LUPA			LAEL			LAOL			LWTS			LWPS			LFRA			LIFD			LHPS			LHTS			RSHO			RUPA			RAEL			RAOL			RWTS			RWPS			RFRA			RIFD			RHTS			RHPS			RBHD			LFHD			RFHD			LBHD			LHIP			RHIP			RASI			LASI			LKNE			LTHI			LANK			LTIP			LTOE			LMT1			LMT5			LHEE			RKNE			RTHI			RANK			RTIP			RTOE			RMT1			RMT5			RHEE			
		X1	Y1	Z1	X2	Y2	Z2	X3	Y3	Z3	X4	Y4	Z4	X5	Y5	Z5	X6	Y6	Z6	X7	Y7	Z7	X8	Y8	Z8	X9	Y9	Z9	X10	Y10	Z10	X11	Y11	Z11	X12	Y12	Z12	X13	Y13	Z13	X14	Y14	Z14	X15	Y15	Z15	X16	Y16	Z16	X17	Y17	Z17	X18	Y18	Z18	X19	Y19	Z19	X20	Y20	Z20	X21	Y21	Z21	X22	Y22	Z22	X23	Y23	Z23	X24	Y24	Z24	X25	Y25	Z25	X26	Y26	Z26	X27	Y27	Z27	X28	Y28	Z28	X29	Y29	Z29	X30	Y30	Z30	X31	Y31	Z31	X32	Y32	Z32	X33	Y33	Z33	X34	Y34	Z34	X35	Y35	Z35	X36	Y36	Z36	X37	Y37	Z37	X38	Y38	Z38	X39	Y39	Z39	X40	Y40	Z40	X41	Y41	Z41	X42	Y42	Z42	X43	Y43	Z43	X44	Y44	Z44	X45	Y45	Z45	X46	Y46	Z46	X47	Y47	Z47	X48	Y48	Z48	X49	Y49	Z49	X50	Y50	Z50	X51	Y51	Z51	X52	Y52	Z52	X53	Y53	Z53	

448	4.47	413.2838439941406	935.415283203125	-253.7240447998047	269.949951171875	937.09326171875	-251.1894989013672	361.17822265625	1042.069580078125	-268.1896362304688	340.5640258789062	1237.27490234375	-540.0122680664062	362.5316467285156	1166.360107421875	-256.100341796875	376.8449096679688	1434.946411132812	-322.9959411621094	342.8290100097656	1350.27490234375	-503.6697387695312	473.4635620117188	1311.616821289062	-268.8148193359375	281.7498168945312	1389.947998046875	-280.7134704589844	192.1137084960938	1414.679809570312	-373.2080078125	92.08367156982422	1301.823974609375	-342.6250610351562	45.98101043701172	1090.198852539062	-334.1365356445312	128.8849334716797	1077.672485351562	-272.1995544433594	63.36227798461914	870.05859375	-387.0460510253906	9.140226364135742	873.6142578125	-333.7168579101562	25.95974922180176	1002.326538085938	-339.3405151367188	43.03091049194336	712.0379638671875	-351.0150756835938	5.406052112579346	795.5513305664062	-322.0051879882812	43.29831314086914	783.5542602539062	-382.5720520019531	526.5575561523438	1397.904174804688	-405.0859985351562	604.0504150390625	1341.046020507812	-393.8890686035156	690.5191040039062	1066.251098632812	-403.1869812011719	655.97412109375	1043.052612304688	-349.7601623535156	659.7131958007812	861.120361328125	-510.4102478027344	725.01220703125	851.4029541015625	-451.8857727050781	706.5377197265625	1009.667053222656	-410.2566223144531	681.654541015625	707.3236694335938	-520.7431640625	680.2611083984375	767.5602416992188	-533.0635375976562	728.7838134765625	764.530029296875	-472.7399597167969	448.6601257324219	1637.813232421875	-435.9450988769531	266.0081481933594	1636.326416015625	-532.4004516601562	392.9430236816406	1643.566162109375	-561.8394165039062	280.22509765625	1633.659423828125	-379.8359069824219	144.0597381591797	850.0599975585938	-395.087890625	545.974365234375	838.179931640625	-385.8391723632812	478.2149047851562	888.0117797851562	-479.7801818847656	224.4783325195312	891.5723266601562	-487.0134582519531	122.3685531616211	450.9183044433594	-503.6329040527344	122.1260833740234	603.8643188476562	-507.1653747558594	89.14639282226562	199.8171539306641	-156.1313171386719	92.48693084716797	341.4360961914062	-390.3446350097656	144.7809295654297	38.95277786254883	-320.5617370605469	177.6392669677734	88.63278961181641	-267.7584228515625	67.74392700195312	95.77076721191406	-263.0091552734375	156.9187927246094	230.4706115722656	-132.4711456298828	515.093994140625	464.2279968261719	-505.9061279296875	553.221435546875	716.6267700195312	-457.4783630371094	525.116943359375	37.7169075012207	-437.3198547363281	525.6942138671875	319.1685791015625	-509.9549255371094	469.6416320800781	44.20336532592773	-655.5476684570312	437.9449157714844	51.82877731323242	-590.318359375	548.28759765625	38.79121017456055	-569.3604125976562	480.8031921386719	32.89894866943359	-372.2452697753906	
449	4.48	415.6327209472656	936.4818115234375	-256.9922485351562	272.2396240234375	938.5120849609375	-254.4219818115234	364.5668029785156	1043.384643554688	-271.5102233886719	342.0289001464844	1238.258911132812	-543.75537109375	366.6524353027344	1167.752075195312	-259.9814147949219	380.7088623046875	1436.225341796875	-327.4864196777344	344.6918334960938	1351.36328125	-507.5556945800781	477.8638000488281	1313.008178710938	-274.0215454101562	286.0644836425781	1391.267578125	-284.0628051757812	195.3675079345703	1415.87646484375	-375.5185546875	96.04465484619141	1302.674560546875	-343.7550354003906	50.68615341186523	1090.830078125	-335.1513977050781	134.3339538574219	1078.142822265625	-274.4474182128906	68.11266326904297	871.4833374023438	-390.5322570800781	14.83876800537109	874.3623046875	-336.3352966308594	30.91371917724609	1002.895629882812	-340.8646850585938	47.4261589050293	713.224609375	-357.5805969238281	10.86976051330566	796.260009765625	-326.0209045410156	47.50176620483398	785.4281005859375	-387.6335754394531	529.4170532226562	1398.976196289062	-411.1644897460938	607.0604858398438	1342.173217773438	-401.0964660644531	694.408935546875	1068.126098632812	-412.6834716796875	660.63037109375	1044.453735351562	-358.9630737304688	664.5113525390625	863.1740112304688	-520.2838745117188	730.36376953125	854.0308837890625	-462.268310546875	710.8140869140625	1011.7373046875	-420.0794677734375	688.6239013671875	709.6834106445312	-531.4402465820312	686.3444213867188	769.9534912109375	-543.5146484375	735.3246459960938	767.3723754882812	-483.5509643554688	452.0788879394531	1638.47314453125	-441.326904296875	268.9269409179688	1637.548461914062	-536.8995361328125	395.7938232421875	1644.16455078125	-566.9652709960938	283.9053344726562	1635.2626953125	-384.455078125	145.5736694335938	852.2337646484375	-399.2522888183594	547.9528198242188	838.5708618164062	-388.7069396972656	480.7561950683594	888.5824584960938	-483.0318908691406	227.3520965576172	893.1715087890625	-489.7133483886719	124.3507843017578	454.0445251464844	-512.7158203125	123.9252777099609	607.4617919921875	-514.963134765625	98.24853515625	199.2142486572266	-168.1238555908203	96.67059326171875	343.1114807128906	-399.9604187011719	144.6248779296875	40.63569259643555	-338.6183776855469	180.502197265625	87.82304382324219	-285.3527526855469	71.08254241943359	99.1197509765625	-277.9091186523438	167.53076171875	227.1402435302734	-144.9850463867188	516.1129150390625	464.1249389648438	-506.3920288085938	554.8424682617188	716.7474975585938	-459.7176513671875	525.08056640625	37.73460388183594	-437.3324279785156	526.2957153320312	319.0430297851562	-510.1797485351562	469.657958984375	44.18862152099609	-655.5494384765625	437.9676818847656	51.89156341552734	-590.343994140625	548.3093872070312	38.79068756103516	-569.3500366210938	480.7494812011719	32.94557189941406	-372.2924194335938	
450	4.49	417.7250366210938	937.62939453125	-260.1705017089844	274.267822265625	939.9611206054688	-257.6281127929688	367.713623046875	1044.6953125	-274.8020935058594	343.4991149902344	1239.34326171875	-547.3497314453125	370.5751647949219	1169.117065429688	-263.6836547851562	384.4010009765625	1437.498901367188	-331.7615051269531	346.4798583984375	1352.50244140625	-511.2521362304688	482.0468444824219	1314.383178710938	-279.0698547363281	290.1820373535156	1392.597534179688	-287.2914428710938	198.5272827148438	1417.16357421875	-377.7725524902344	99.8565673828125	1303.649658203125	-345.0106201171875	55.34113311767578	1091.529663085938	-336.4037475585938	139.6571350097656	1078.70068359375	-276.8722229003906	72.46360778808594	873.2012939453125	-394.4832763671875	20.6181526184082	875.1288452148438	-339.1666564941406	35.81394195556641	1003.547180175781	-342.6850891113281	51.75583267211914	714.552001953125	-364.3892211914062	16.24080657958984	797.07421875	-330.3423767089844	51.68898773193359	787.4008178710938	-392.9319152832031	532.1373901367188	1400.160400390625	-416.9130554199219	609.9090576171875	1343.421264648438	-407.9252319335938	697.9845581054688	1070.070678710938	-421.8357849121094	664.8604125976562	1045.884521484375	-367.9186706542969	669.1029052734375	865.3905639648438	-530.098388671875	735.3790893554688	856.777099609375	-472.4627075195312	714.7648315429688	1013.885009765625	-429.5974731445312	695.3392944335938	712.2186279296875	-542.074951171875	692.2470703125	772.5196533203125	-553.9025268554688	741.5411376953125	770.3547973632812	-494.1993408203125	455.21240234375	1639.209106445312	-446.5392150878906	271.5916442871094	1638.700073242188	-541.236328125	398.3591003417969	1644.7724609375	-571.9217529296875	287.3159790039062	1636.8369140625	-388.902587890625	146.9794769287109	854.3917846679688	-403.4469299316406	549.7212524414062	839.0048828125	-391.3679809570312	483.2207336425781	889.1898803710938	-486.1329650878906	230.1471862792969	894.7372436523438	-492.4121704101562	126.2377166748047	457.0372924804688	-521.2083740234375	125.7316589355469	610.9645385742188	-522.373046875	106.7466125488281	197.3043823242188	-180.4922332763672	100.6413192749023	344.3797607421875	-409.3465576171875	146.0430450439453	42.2657470703125	-356.7610778808594	184.1217346191406	87.02664947509766	-302.9374389648438	75.24123382568359	101.2583999633789	-293.13525390625	177.1617126464844	223.0163116455078	-157.7394409179688	517.0780639648438	464.0593872070312	-506.6109313964844	556.3456420898438	716.8980102539062	-461.6766967773438	525.048583984375	37.73785400390625	-437.34130859375	526.8988037109375	318.97119140625	-510.2159423828125	469.6765747070312	44.18264389038086	-655.5466918945312	438.005126953125	51.96191787719727	-590.3549194335938	548.329833984375	38.79146194458008	-569.3388061523438	480.7084045410156	32.98568725585938	-372.3307495117188	
451	4.5	419.5903015136719	938.8549194335938	-263.2692565917969	276.0730895996094	941.4235229492188	-260.7949829101562	370.615234375	1045.99267578125	-278.0579833984375	344.9896850585938	1240.502685546875	-550.8132934570312	374.2907409667969	1170.443603515625	-267.2347412109375	387.9196166992188	1438.754150390625	-335.8343505859375	348.2063598632812	1353.671875	-514.7900390625	486.0092163085938	1315.722290039062	-283.9595947265625	294.0950317382812	1393.931030273438	-290.42138671875	201.5907745361328	1418.52392578125	-380.0048217773438	103.5018692016602	1304.743530273438	-346.4076538085938	59.89861297607422	1092.299926757812	-337.8973693847656	144.7895050048828	1079.352783203125	-279.4375	76.43939971923828	875.2000122070312	-398.8994750976562	26.43039894104004	875.9042358398438	-342.2662048339844	40.62121963500977	1004.278991699219	-344.8196411132812	56.10964584350586	716.0044555664062	-371.3678894042969	21.53719902038574	797.9723510742188	-334.9881896972656	55.93172836303711	789.4337768554688	-398.4482421875	534.729248046875	1401.438110351562	-422.3371887207031	612.611572265625	1344.77490234375	-414.3692626953125	701.2828979492188	1072.060302734375	-430.6034851074219	668.6936645507812	1047.323974609375	-376.5866394042969	673.4719848632812	867.7802734375	-539.8434448242188	740.0249633789062	859.602783203125	-482.45361328125	718.4102783203125	1016.075439453125	-438.7738647460938	701.7299194335938	714.9298706054688	-552.671630859375	697.9208984375	775.2755737304688	-564.2454833984375	747.3697509765625	773.4487915039062	-504.6857299804688	458.0536193847656	1640.031372070312	-451.5614929199219	273.994140625	1639.775024414062	-545.3895874023438	400.6282348632812	1645.411499023438	-576.6869506835938	290.4469299316406	1638.344604492188	-393.1524658203125	148.3097534179688	856.4903564453125	-407.5724182128906	551.3012084960938	839.4986572265625	-393.8642272949219	485.5838623046875	889.8239135742188	-489.1010437011719	232.8246765136719	896.2582397460938	-495.1168212890625	128.0574035644531	459.853515625	-529.12744140625	127.5401077270508	614.3085327148438	-529.30859375	114.4905242919922	194.1118011474609	-193.2330932617188	104.3957824707031	345.2078247070312	-418.5646667480469	149.0851745605469	43.74109649658203	-374.9822082519531	188.5668029785156	86.25245666503906	-320.4352111816406	80.1796875	102.1019973754883	-308.7171325683594	185.654052734375	218.1956939697266	-170.6618957519531	518.00341796875	464.0279846191406	-506.5689697265625	557.739013671875	717.0912475585938	-463.4036254882812	525.0234985351562	37.72554779052734	-437.3455810546875	527.5155639648438	318.9523620605469	-510.0733032226562	469.698974609375	44.18479537963867	-655.538818359375	438.0617370605469	52.04269027709961	-590.3488159179688	548.3511352539062	38.79416275024414	-569.3250732421875	480.6781921386719	33.01686477661133	-372.3590698242188	
